<svg width="18" height="20" viewBox="0 0 18 20" fill="none" xmlns="http://www.w3.org/2000/svg">
<path d="M13.8222 3.13333C13.0627 2.26625 12.6441 1.1527 12.6444 0H9.21111V13.7778C9.18463 14.5234 8.86986 15.2296 8.33307 15.7477C7.79629 16.2658 7.07939 16.5555 6.33333 16.5556C4.75556 16.5556 3.44444 15.2667 3.44444 13.6667C3.44444 11.7556 5.28889 10.3222 7.18889 10.9111V7.4C3.35556 6.88889 0 9.86667 0 13.6667C0 17.3667 3.06667 20 6.32222 20C9.81111 20 12.6444 17.1667 12.6444 13.6667V6.67778C14.0367 7.67761 15.7082 8.21405 17.4222 8.21111V4.77778C17.4222 4.77778 15.3333 4.87778 13.8222 3.13333Z" fill="white"/>
</svg>
